<svg width="300" height="300" fill="none" xmlns="http://www.w3.org/2000/svg"><path fill="#fff" d="M25.909 49.772h250.569v200.455H25.909z"/><path fill-rule="evenodd" clip-rule="evenodd" d="M300 195c0 57.951-47.049 105-105 105h-90C47.049 300 0 252.951 0 195v-90C0 47.049 47.049 0 105 0h90c57.951 0 105 47.049 105 105v90Zm-112.995 5.017h-.015c-2.559 0-4.735-.896-6.527-2.688-1.792-1.792-2.688-3.904-2.688-6.336v-86.297c0-7.744-2.72-14.335-8.159-19.775-5.414-5.413-11.968-8.133-19.664-8.159-7.696.026-14.25 2.746-19.664 8.16-5.439 5.439-8.159 12.03-8.159 19.774v86.297c0 2.432-.896 4.544-2.688 6.336-1.792 1.792-3.968 2.688-6.527 2.688h-.222c-2.432 0-4.544-.896-6.336-2.688-1.792-1.792-2.688-3.904-2.688-6.336v-86.297c0-7.744-2.735-14.335-8.207-19.775-5.472-5.44-12.047-8.16-19.727-8.16-7.743 0-14.334 2.72-19.774 8.16-5.44 5.44-8.16 12.031-8.16 19.775v86.297c0 2.432-.895 4.544-2.687 6.336-1.792 1.792-3.968 2.688-6.528 2.688-2.432 0-4.544-.896-6.335-2.688-1.792-1.792-2.688-3.904-2.688-6.336v-86.297c0-8.384 2.064-16.127 6.192-23.23 4.127-7.104 9.727-12.72 16.798-16.847 7.072-4.128 14.8-6.192 23.182-6.192 7.488 0 14.48 1.664 20.975 4.992 6.495 3.327 11.823 7.903 15.983 13.727 4.287-5.824 9.679-10.4 16.175-13.727 6.495-3.328 13.487-4.992 20.974-4.992h.222c4.235 0 8.311.532 12.229 1.597l.134.037c1.057.29 2.097.617 3.122.983a45.492 45.492 0 0 1 5.489 2.375c6.44 3.299 11.732 7.825 15.875 13.576l.112.146c4.287-5.822 9.677-10.396 16.171-13.722 6.496-3.328 13.487-4.992 20.974-4.992 12.736 0 23.631 4.528 32.686 13.583s13.583 19.95 13.583 32.686v86.297c0 2.432-.912 4.544-2.736 6.336-1.823 1.792-3.951 2.688-6.383 2.688-2.56 0-4.736-.896-6.528-2.688-1.792-1.792-2.688-3.904-2.688-6.336v-86.297c0-7.744-2.719-14.335-8.159-19.775-5.44-5.44-12.031-8.16-19.775-8.16-7.679 0-14.254 2.72-19.726 8.16-5.472 5.44-8.207 12.031-8.207 19.775v86.297c0 2.432-.896 4.544-2.688 6.336-1.792 1.792-3.968 2.688-6.528 2.688h-.015Zm.025 41.556c12.735 0 23.63-4.528 32.686-13.583 9.055-9.055 13.583-19.951 13.583-32.686v-86.297c0-2.432-.912-4.544-2.736-6.336-1.824-1.792-3.952-2.688-6.384-2.688-2.56 0-4.735.896-6.527 2.688-1.792 1.792-2.688 3.904-2.688 6.336v86.297c0 7.744-2.72 14.335-8.16 19.775-5.439 5.439-12.031 8.159-19.774 8.159-7.68 0-14.255-2.72-19.727-8.159-5.471-5.44-8.207-12.031-8.207-19.775v-86.297c0-2.432-.896-4.544-2.688-6.336-1.792-1.792-3.968-2.688-6.527-2.688-2.432 0-4.544.896-6.336 2.688-1.792 1.792-2.688 3.904-2.688 6.336v86.297c0 7.744-2.735 14.335-8.207 19.775-5.472 5.439-12.047 8.159-19.727 8.159-7.743 0-14.335-2.72-19.774-8.159-5.44-5.44-8.16-12.031-8.16-19.775v-86.297c0-2.432-.896-4.544-2.687-6.336-1.792-1.792-3.968-2.688-6.528-2.688-2.432 0-4.544.896-6.335 2.688-1.792 1.792-2.688 3.904-2.688 6.336v86.297c0 8.384 2.064 16.127 6.191 23.231 4.128 7.103 9.728 12.719 16.799 16.846 7.072 4.128 14.799 6.192 23.182 6.192 7.488 0 14.479-1.664 20.975-4.992 6.495-3.327 11.823-7.903 15.983-13.727 4.287 5.824 9.679 10.4 16.175 13.727 6.495 3.328 13.487 4.992 20.974 4.992Z" fill="#185ADB"/></svg>